<?xml version="1.0" encoding="iso-8859-1"?>
<!-- Generator: Adobe Illustrator 19.0.0, SVG Export Plug-In . SVG Version: 6.00 Build 0)  -->
<svg xmlns="http://www.w3.org/2000/svg" xmlns:xlink="http://www.w3.org/1999/xlink" version="1.1" id="Capa_1" x="0px" y="0px" viewBox="0 0 511.999 511.999" style="enable-background:new 0 0 511.999 511.999;" xml:space="preserve">
<path style="fill:#37508C;" d="M67.741,227.977c-25.759,0-48.197,9.706-60.242,24.097c12.045,14.391,34.483,24.097,60.242,24.097  s48.197-9.706,60.242-24.097C115.938,237.683,93.5,227.977,67.741,227.977z"/>
<path style="fill:#465F96;" d="M488.444,251.822H138.535c-4.272,0-7.152-4.609-5.038-8.321  c6.807-11.954,10.928-27.189,10.928-43.889c0-25.759-9.706-48.197-24.097-60.242c-14.391,12.046-24.097,34.483-24.097,60.242  c0,23.548,8.111,44.32,20.497,56.913c2.471,2.512,3.709,5.943,4.043,9.451c6.391,67.235,57.716,123.301,127.742,144.94l40.112,8.278  c7.895,0.861,15.938,1.306,24.1,1.306c99.368,0,181.177-65.786,191.643-150.298C505.573,260.486,498.235,251.822,488.444,251.822z"/>
<path style="fill:#C7CFE2;" d="M414.157,308.052c-21.814,51.21-70.6,91.531-132.122,109.783l6.59,1.36  c7.895,0.861,15.938,1.306,24.1,1.306c83.902,0,155.101-46.977,181.589-112.451L414.157,308.052z"/>
<path style="fill:#AFB9D2;" d="M457.307,308.05l-43.15,0.001c-21.814,51.21-70.6,91.531-132.122,109.783l6.59,1.36  c1.843,0.201,3.72,0.3,5.579,0.455C369.944,413.322,432.79,368.649,457.307,308.05z"/>
<path style="fill:#37508C;" d="M248.468,404.436v48.194c22.18,0,40.161-17.981,40.161-40.161v-8.032  c0-8.872-7.192-16.065-16.065-16.065h-8.032C255.66,388.371,248.468,395.564,248.468,404.436z"/>
<path style="fill:#5A73A9;" d="M160.112,263.871c0,6.654,5.394,12.048,12.048,12.048h331.189c0.314-1.913,0.78-3.783,1.02-5.716  c1.203-9.717-6.134-18.381-15.925-18.381H172.161C165.507,251.822,160.112,257.217,160.112,263.871z"/>
<path d="M506.007,252.399c-4.446-5.03-10.847-7.916-17.563-7.916H137.176c9.177-13.104,14.371-30.276,14.371-48.726  c0-25.71-10.086-48.939-26.979-62.137c-2.713-2.119-6.521-2.119-9.234,0c-16.894,13.198-26.98,36.427-26.98,62.137  c0,10.342,1.639,20.278,4.69,29.326c-9.046-3.051-18.977-4.697-29.318-4.697c-25.71,0-48.939,10.086-62.136,26.98  c-2.12,2.713-2.12,6.521,0,9.234c13.197,16.894,36.426,26.98,62.136,26.98c18.875,0,36.407-5.442,49.62-15.018  c7.112,66.222,56.405,123.924,127.623,147.949v36.279c0,4.142,3.358,7.5,7.5,7.5c21.134,0,39.091-13.829,45.318-32.91  c6.279,0.517,12.626,0.781,18.941,0.781c49.507,0,97.028-16.007,133.81-45.072c36.763-29.051,59.946-68.756,65.277-111.804  C512.663,264.421,510.547,257.537,506.007,252.399z M119.951,149.632c10.353,10.82,16.597,27.884,16.597,46.126  s-6.244,35.306-16.597,46.126c-10.353-10.82-16.597-27.884-16.597-46.126S109.598,160.452,119.951,149.632z M63.725,268.581  c-18.243,0-35.306-6.244-46.126-16.597c10.82-10.353,27.884-16.597,46.126-16.597s35.306,6.244,46.126,16.597  C99.031,262.337,81.967,268.581,63.725,268.581z M444.699,315.71c-21.674,36.82-55.601,64.398-97.47,79.958  c32.156-19.733,57.46-47.497,71.887-79.958H444.699z M437.236,371.32c-23.701,18.729-52.257,31.61-82.941,37.742  c47.069-17.933,84.705-50.226,107.562-93.353h21.078C472.551,336.666,457.056,355.658,437.236,371.32z M496.926,269.442  c-1.324,10.688-3.877,21.153-7.564,31.268h-96.313c-4.142,0-7.5,3.358-7.5,7.5s3.358,7.5,7.5,7.5h9.464  c-21.385,42.715-63.861,75.832-115.814,89.672c-3.284,0.875-5.569,3.849-5.569,7.248c0,15.43-10.754,28.395-25.162,31.792v-47.857  c0-4.142-3.358-7.5-7.5-7.5s-7.5,3.358-7.5,7.5v4.058c-65.677-24.016-109.993-79.126-113.316-141.139h360.792  c2.454,0,4.699,1.012,6.323,2.849C496.461,264.25,497.248,266.842,496.926,269.442z"/>
<path d="M361,300.71h-0.08c-4.142,0-7.46,3.358-7.46,7.5s3.398,7.5,7.54,7.5s7.5-3.358,7.5-7.5S365.142,300.71,361,300.71z"/>
<path d="M441.243,187.193c4.142,0,7.5-3.358,7.5-7.5v-8.032c0-17.423-14.174-31.597-31.597-31.597  c-9.649,0-18.297,4.353-24.097,11.192c-5.8-6.839-14.448-11.192-24.097-11.192c-17.423,0-31.597,14.174-31.597,31.597v8.032  c0,4.142,3.358,7.5,7.5,7.5s7.5-3.358,7.5-7.5v-8.032c0-9.152,7.445-16.597,16.597-16.597c9.151,0,16.597,7.445,16.597,16.597  v48.193c0,4.143,3.358,7.5,7.5,7.5s7.5-3.357,7.5-7.5v-48.193c0-9.152,7.445-16.597,16.597-16.597  c9.151,0,16.597,7.445,16.597,16.597v8.032C433.743,183.835,437.1,187.193,441.243,187.193z"/>
<path d="M312.726,106.87c4.142,0,7.5-3.357,7.5-7.5c0-18.009,14.652-32.661,32.662-32.661c18.009,0,32.661,14.652,32.661,32.661  v24.097c0,4.142,3.358,7.5,7.5,7.5s7.5-3.358,7.5-7.5V99.37c0-18.009,14.652-32.661,32.662-32.661s32.662,14.652,32.662,32.661  c0,4.143,3.358,7.5,7.5,7.5s7.5-3.357,7.5-7.5c0-26.28-21.381-47.661-47.662-47.661c-16.856,0-31.685,8.804-40.162,22.046  c-8.476-13.243-23.305-22.046-40.162-22.046c-26.28,0-47.661,21.381-47.661,47.661C305.226,103.513,308.584,106.87,312.726,106.87z"/>
<g>
</g>
<g>
</g>
<g>
</g>
<g>
</g>
<g>
</g>
<g>
</g>
<g>
</g>
<g>
</g>
<g>
</g>
<g>
</g>
<g>
</g>
<g>
</g>
<g>
</g>
<g>
</g>
<g>
</g>
</svg>
